<svg width="1808" height="1031" viewBox="0 0 1808 1031" fill="none" xmlns="http://www.w3.org/2000/svg">
<g filter="url(#filter0_d_1_59)">
<rect x="50" y="50" width="1708" height="931" fill="#D9D9D9"/>
<path d="M83 77H1719V952H83V77Z" fill="#F1F1F1"/>
<rect x="50" y="289" width="109" height="454" rx="34" fill="#D9D9D9"/>
<rect x="62" y="303" width="84" height="425" rx="21" fill="#EAEAEA"/>
<rect x="1649" y="289" width="109" height="454" rx="34" fill="#D9D9D9"/>
<rect x="1662" y="303" width="84" height="425" rx="21" fill="#EAEAEA"/>
<path d="M61 395H145V402H61V395Z" fill="#C4C4C4"/>
<path d="M61 485.5H145V492.5H61V485.5Z" fill="#C4C4C4"/>
<path d="M61 572.5H145V579.5H61V572.5Z" fill="#C4C4C4"/>
<path d="M61 650H145V657H61V650Z" fill="#C4C4C4"/>
<path d="M61 395H145V402H61V395Z" fill="#C4C4C4"/>
<path d="M61 485.5H145V492.5H61V485.5Z" fill="#C4C4C4"/>
<path d="M61 572.5H145V579.5H61V572.5Z" fill="#C4C4C4"/>
<path d="M61 650H145V657H61V650Z" fill="#C4C4C4"/>
<path d="M1662 395H1746V402H1662V395Z" fill="#C4C4C4"/>
<path d="M1662 485.5H1746V492.5H1662V485.5Z" fill="#C4C4C4"/>
<path d="M1662 572.5H1746V579.5H1662V572.5Z" fill="#C4C4C4"/>
<path d="M1662 650H1746V657H1662V650Z" fill="#C4C4C4"/>
<path d="M89.4717 362.728C88.934 362.727 88.4215 362.51 88.0591 362.131C87.69 361.754 87.5066 361.244 87.555 360.73L88.0246 355.791L109.717 335.049L116.497 341.531L94.8096 362.272L89.6461 362.721C89.5867 362.726 89.5273 362.728 89.4717 362.728ZM117.85 340.235L111.073 333.752L115.138 329.864C115.497 329.52 115.985 329.326 116.494 329.326C117.002 329.326 117.49 329.52 117.85 329.864L121.915 333.752C122.275 334.096 122.477 334.563 122.477 335.049C122.477 335.536 122.275 336.003 121.915 336.347L117.852 340.233L117.85 340.235Z" fill="#2E3A59"/>
<path d="M1693 681H1696.67V684.667H1693V681Z" fill="#2E3A59"/>
<path d="M1687.5 690.167V675.5H1702.17V690.167H1687.5ZM1691.17 679.167V686.5H1698.5V679.167H1691.17Z" fill="#2E3A59"/>
<path d="M1705.83 693.833H1711.33V697.5H1705.83V693.833Z" fill="#2E3A59"/>
<path d="M1711.33 697.5H1715V693.833H1720.5V699.333H1715V701.167H1716.83V703H1720.5V708.5H1716.83V704.833H1713.17V708.5H1705.83V701.167H1709.5V704.833H1711.33V697.5Z" fill="#2E3A59"/>
<path d="M1715 681H1711.33V684.667H1715V681Z" fill="#2E3A59"/>
<path d="M1705.83 675.5V690.167H1720.5V675.5H1705.83ZM1716.83 679.167V686.5H1709.5V679.167H1716.83Z" fill="#2E3A59"/>
<path d="M1693 699.333H1696.67V703H1693V699.333Z" fill="#2E3A59"/>
<path d="M1687.5 708.5V693.833H1702.17V708.5H1687.5ZM1691.17 697.5V704.833H1698.5V697.5H1691.17Z" fill="#2E3A59"/>
<path d="M106.667 458.333H88.3333C87.3508 458.368 86.3982 457.992 85.703 457.297C85.0079 456.602 84.6325 455.649 84.6667 454.667V436.333C84.6325 435.351 85.0079 434.398 85.703 433.703C86.3982 433.008 87.3508 432.633 88.3333 432.667H95.6667V425.333C95.6325 424.351 96.0079 423.398 96.703 422.703C97.3982 422.008 98.3508 421.633 99.3333 421.667H117.667C118.649 421.633 119.602 422.008 120.297 422.703C120.992 423.398 121.367 424.351 121.333 425.333V443.667C121.367 444.649 120.991 445.601 120.296 446.296C119.601 446.991 118.649 447.367 117.667 447.333H110.333V454.667C110.367 455.649 109.991 456.601 109.296 457.296C108.601 457.991 107.649 458.367 106.667 458.333ZM88.3333 436.333V454.667H106.667V447.333H99.3333C98.351 447.367 97.3987 446.991 96.7036 446.296C96.0086 445.601 95.6331 444.649 95.6667 443.667V436.333H88.3333ZM99.3333 425.333V443.667H117.667V425.333H99.3333Z" fill="#2E3A59"/>
<path d="M103 553.333C100.976 553.323 99.335 551.69 99.315 549.667H106.648C106.652 550.157 106.559 550.643 106.373 551.097C105.892 552.2 104.91 553.005 103.733 553.26H103.724H103.697H103.664H103.647C103.434 553.304 103.218 553.329 103 553.333ZM117.667 547.833H88.3333V544.167L92 542.333V532.25C91.9034 529.663 92.4875 527.097 93.694 524.807C94.8949 522.683 96.9476 521.175 99.3333 520.663V516.667H106.667V520.663C111.395 521.789 114 525.903 114 532.25V542.333L117.667 544.167V547.833Z" fill="#2E3A59"/>
<path d="M108.5 631.333H97.5V627.667H108.5V631.333ZM108.5 625.833H97.5L97.0912 622.167C96.8712 620.954 96.5075 619.772 96.0077 618.645C95.3587 617.728 94.6822 616.945 94.0277 616.181C91.6225 613.926 90.2302 610.796 90.1667 607.5C90.1667 600.412 95.9124 594.667 103 594.667C110.088 594.667 115.833 600.412 115.833 607.5C115.759 610.776 114.377 613.886 111.996 616.137L111.965 616.173C111.312 616.938 110.638 617.73 110.002 618.637C109.502 619.767 109.137 620.952 108.914 622.167L108.5 625.833ZM103 598.333C97.9399 598.339 93.8394 602.44 93.8333 607.5C93.8333 610.331 95.014 611.704 96.7997 613.785C97.478 614.577 98.248 615.471 98.9997 616.518C99.9119 618.291 100.535 620.198 100.846 622.167H105.156C105.475 620.203 106.097 618.301 107 616.529C107.734 615.482 108.502 614.582 109.178 613.79L109.206 613.757C110.988 611.667 112.167 610.287 112.167 607.5C112.161 602.44 108.06 598.339 103 598.333Z" fill="#2E3A59"/>
<path d="M117.667 708.5H88.3333C86.3083 708.5 84.6667 706.858 84.6667 704.833V679.167C84.6667 677.142 86.3083 675.5 88.3333 675.5H117.667C119.692 675.5 121.333 677.142 121.333 679.167V704.833C121.333 706.858 119.692 708.5 117.667 708.5ZM88.3333 682.833V704.833H117.667V682.833H88.3333ZM107.963 700.63L105.372 698.039L109.574 693.833L105.371 689.63L107.963 687.037L114.759 693.833L107.965 700.628L107.963 700.63ZM98.0372 700.63L91.241 693.833L98.0372 687.037L100.63 689.63L96.4257 693.833L100.628 698.037L98.0372 700.628V700.63Z" fill="#2E3A59"/>
<path d="M1704 631.333C1693.87 631.333 1685.67 623.125 1685.67 613C1685.67 602.875 1693.87 594.667 1704 594.667C1714.13 594.667 1722.33 602.875 1722.33 613C1722.32 623.121 1714.12 631.322 1704 631.333ZM1700.31 611.148V614.833H1702.15V622.167H1707.68V618.5H1705.83L1705.85 611.15L1700.31 611.148ZM1702.15 603.833V607.535H1705.85V603.833H1702.15Z" fill="#2E3A59"/>
<path d="M1685.67 527.833L1702.7 510.796C1703.42 510.08 1704.58 510.08 1705.3 510.796L1722.33 527.833H1718.67V542.5C1718.67 543.513 1717.85 544.333 1716.83 544.333H1707.67V531.5H1700.33V544.333H1691.17C1690.15 544.333 1689.33 543.513 1689.33 542.5V527.833H1685.67Z" fill="#2E3A59"/>
<path d="M1716.83 463.5H1691.17C1689.14 463.5 1687.5 461.858 1687.5 459.833V434.167C1687.5 432.142 1689.14 430.5 1691.17 430.5H1716.83C1718.86 430.5 1720.5 432.142 1720.5 434.167V459.833C1720.5 461.858 1718.86 463.5 1716.83 463.5ZM1691.17 434.167V459.833H1716.83V434.167H1691.17ZM1715 456.167H1693L1698.5 448.833L1700.33 450.667L1705.83 443.333L1715 456.167ZM1697.58 445.167C1696.06 445.167 1694.83 443.935 1694.83 442.417C1694.83 440.898 1696.06 439.667 1697.58 439.667C1699.1 439.667 1700.33 440.898 1700.33 442.417C1700.33 443.935 1699.1 445.167 1697.58 445.167Z" fill="#2E3A59"/>
<path d="M1704 363.5C1701.68 361.525 1699.54 359.359 1697.58 357.026C1694.65 353.523 1691.17 348.305 1691.17 343.333C1691.16 338.14 1694.29 333.458 1699.09 331.471C1703.89 329.483 1709.41 330.583 1713.08 334.256C1715.49 336.659 1716.84 339.928 1716.83 343.333C1716.83 348.305 1713.35 353.523 1710.42 357.026C1708.46 359.359 1706.32 361.525 1704 363.5ZM1704 337.833C1702.04 337.833 1700.22 338.882 1699.24 340.583C1698.25 342.285 1698.25 344.382 1699.24 346.083C1700.22 347.785 1702.04 348.833 1704 348.833C1707.04 348.833 1709.5 346.371 1709.5 343.333C1709.5 340.296 1707.04 337.833 1704 337.833Z" fill="#2E3A59"/>
</g>
<defs>
<filter id="filter0_d_1_59" x="0" y="0" width="1808" height="1031" filterUnits="userSpaceOnUse" color-interpolation-filters="sRGB">
<feFlood flood-opacity="0" result="BackgroundImageFix"/>
<feColorMatrix in="SourceAlpha" type="matrix" values="0 0 0 0 0 0 0 0 0 0 0 0 0 0 0 0 0 0 127 0" result="hardAlpha"/>
<feOffset/>
<feGaussianBlur stdDeviation="25"/>
<feComposite in2="hardAlpha" operator="out"/>
<feColorMatrix type="matrix" values="0 0 0 0 0 0 0 0 0 0 0 0 0 0 0 0 0 0 0.25 0"/>
<feBlend mode="normal" in2="BackgroundImageFix" result="effect1_dropShadow_1_59"/>
<feBlend mode="normal" in="SourceGraphic" in2="effect1_dropShadow_1_59" result="shape"/>
</filter>
</defs>
</svg>
