<svg id="Capa_1" enable-background="new 0 0 512.002 512.002" height="512" viewBox="0 0 512.002 512.002" width="512" xmlns="http://www.w3.org/2000/svg"><g><g clip-rule="evenodd" fill-rule="evenodd"><path d="m136.001 50.001h280v331.999h-280z" fill="#ffda8f"/><path d="m96.001 417.002v-355-52.002c-22 0-40 18-40 40v412.002c0-22 18-40 40-40z" fill="#ffda8f"/><path d="m96.001 62.001v278 82h342.874 17.125v-412.001h-360v52.001zm40 319.999v-331.999h280v331.999z" fill="#ffc144"/><path d="m438.876 422.002h-342.875c-22 0-40 18-40 40s18.003 40 40 40h360v-80z" fill="#fff"/></g><g><path d="m456.001 0h-360c-27.57 0-50 22.43-50 50v412.002c0 27.57 22.43 50 50 50h360c5.522 0 10-4.478 10-10v-492.002c0-5.522-4.478-10-10-10zm-390 50c0-13.037 8.36-24.159 20-28.286v149.283c0 5.522 4.478 10 10 10s10-4.478 10-10v-150.997h340v392.002h-340v-151.005c0-5.522-4.478-10-10-10s-10 4.478-10 10v152.01c-7.385 1.505-14.183 4.643-20 9.018zm30 442.002c-16.542 0-30-13.458-30-30s13.458-30 30-30h350v20h-350c-5.522 0-10 4.478-10 10s4.478 10 10 10h350v20z"/><path d="m136.001 392h280c5.522 0 10-4.478 10-10v-331.999c0-5.522-4.478-10-10-10h-280c-5.522 0-10 4.478-10 10v331.999c0 5.522 4.478 10 10 10zm10-331.999h260v311.999h-260z"/><path d="m219.126 186.001c5.522 0 10-4.478 10-10s-4.478-10-10-10h-35c-5.522 0-10 4.478-10 10v80c0 5.522 4.478 10 10 10h35c5.522 0 10-4.478 10-10s-4.478-10-10-10h-25v-20h14.625c5.522 0 10-4.478 10-10s-4.478-10-10-10h-14.625v-20z"/><path d="m292.876 166.001c-5.522 0-10 4.478-10 10v37.639l-21.056-42.11c-2.074-4.148-6.725-6.333-11.242-5.261-4.514 1.065-7.702 5.095-7.702 9.732v80c0 5.522 4.478 10 10 10s10-4.478 10-10v-37.639l21.056 42.11c1.722 3.443 5.221 5.529 8.942 5.529.762 0 1.532-.087 2.3-.269 4.514-1.065 7.702-5.095 7.702-9.732v-80c0-5.521-4.478-9.999-10-9.999z"/><path d="m367.876 211.233h-9.999c-5.522 0-10 4.478-10 10s4.477 9.999 9.999 10v4.768c0 5.514-4.486 10-10 10s-9.999-4.486-9.999-10v-40.001c0-5.514 4.485-9.999 9.999-9.999 3.764 0 7.182 2.108 8.919 5.503 2.516 4.916 8.538 6.861 13.458 4.345 4.916-2.517 6.861-8.542 4.345-13.458-5.175-10.109-15.414-16.39-26.722-16.39-16.542 0-29.999 13.457-29.999 29.999v40.001c0 16.542 13.457 30 29.999 30s30-13.458 30-30v-14.768c0-5.522-4.478-10-10-10z"/><path d="m96.001 226.001c5.522 0 10-4.478 10-10v-.008c0-5.522-4.478-9.996-10-9.996s-10 4.481-10 10.004 4.478 10 10 10z"/></g></g></svg>